<?xml version="1.0" encoding="utf-8"?>
<!-- Generator: Adobe Illustrator 16.0.0, SVG Export Plug-In . SVG Version: 6.00 Build 0)  -->
<!DOCTYPE svg PUBLIC "-//W3C//DTD SVG 1.1//EN" "http://www.w3.org/Graphics/SVG/1.1/DTD/svg11.dtd">
<svg version="1.1" id="圖層_1" xmlns="http://www.w3.org/2000/svg" xmlns:xlink="http://www.w3.org/1999/xlink" x="0px" y="0px"
	 width="194px" height="143px" viewBox="0 0 194 143" enable-background="new 0 0 194 143" xml:space="preserve">
<g>
	<path fill-rule="evenodd" clip-rule="evenodd" d="M186.813,44.777c-1.266-17.279-5.737-27.733-26.353-33.088
		c-6.524-1.695-13.136-1.792-19.773-1.514c-3.993,0-8.042-0.438-11.97,0.069c-29.334,3.787-56.456,13.817-81.383,29.673
		c-13.718,8.726-26.197,18.858-34.55,33.212C6.3,84.27,5.978,95.259,13.164,106.36c12.108,18.706,30.251,27.333,51.42,29.397
		c39.614,3.865,73.429-9.368,100.882-37.929C179.497,83.231,188.346,65.72,186.813,44.777z M47.39,118.401
		c46.822-2.202,87.568-18.563,122.452-49.853C154.907,109.074,86.533,136.932,47.39,118.401z M170.711,45.302
		c-3.188,7.11-8.23,12.899-14.014,17.972c-25.435,22.311-55.374,34.962-88.446,40.605c-10.36,1.767-20.837,2.189-31.272,0.171
		c-0.489-0.095-0.997-0.101-1.481-0.212c-14.984-3.441-18.95-13.069-10.689-26.126C30.51,68.7,38.404,61.808,46.962,55.694
		c24.831-17.736,52.527-28.355,82.684-32.568c3.75-0.523,7.636-0.071,11.459-0.071c7.452-0.3,14.922-0.234,21.942,2.849
		C171.928,29.803,174.663,36.487,170.711,45.302z"/>
	<path fill-rule="evenodd" clip-rule="evenodd" fill="#010101" d="M70.075,57.093c0.063,1.844-1.354,2.016-2.276,2.56
		C54.831,67.291,42.687,75.9,34.049,88.564c-1.852,2.714-3.022,0.224-4.446-0.293c-2.063-0.748-1.678-1.938-0.663-3.437
		c4.329-6.386,9.708-11.78,15.58-16.714c6.244-5.244,12.979-9.793,20.079-13.785c0.981-0.552,2.092-2.267,3.404-0.886
		C68.993,54.492,69.483,56.009,70.075,57.093z"/>
</g>
</svg>
