<?xml version="1.0" encoding="utf-8"?>
<!-- Generator: Adobe Illustrator 16.0.0, SVG Export Plug-In . SVG Version: 6.00 Build 0)  -->
<!DOCTYPE svg PUBLIC "-//W3C//DTD SVG 1.1//EN" "http://www.w3.org/Graphics/SVG/1.1/DTD/svg11.dtd">
<svg version="1.1" id="圖層_1" xmlns="http://www.w3.org/2000/svg" xmlns:xlink="http://www.w3.org/1999/xlink" x="0px" y="0px"
	 width="32px" height="32px" viewBox="81 81 32 32" enable-background="new 81 81 32 32" xml:space="preserve">
<g>
	<path d="M110.661,93.579c-0.193-2.641-0.877-4.238-4.027-5.057c-0.997-0.259-2.007-0.273-3.021-0.231
		c-0.61,0-1.229-0.067-1.829,0.011c-4.483,0.579-8.627,2.111-12.437,4.535c-2.097,1.333-4.003,2.882-5.28,5.076
		c-0.991,1.702-1.04,3.382,0.059,5.077c1.85,2.859,4.623,4.177,7.857,4.493c6.053,0.591,11.221-1.432,15.416-5.797
		C109.543,99.455,110.896,96.779,110.661,93.579z M89.355,104.83c7.155-0.337,13.382-2.838,18.713-7.619
		C105.785,103.404,95.337,107.662,89.355,104.83z M108.201,93.659c-0.487,1.086-1.259,1.971-2.142,2.747
		c-3.888,3.409-8.462,5.343-13.517,6.205c-1.583,0.271-3.184,0.335-4.779,0.026c-0.075-0.015-0.152-0.016-0.226-0.032
		c-2.29-0.526-2.896-1.997-1.634-3.993c0.871-1.377,2.077-2.43,3.385-3.364c3.795-2.711,8.027-4.333,12.636-4.977
		c0.573-0.08,1.166-0.011,1.75-0.011c1.139-0.045,2.281-0.036,3.354,0.435C108.387,91.291,108.805,92.312,108.201,93.659z"/>
	<path d="M92.822,95.461c0.009,0.281-0.207,0.308-0.348,0.391c-1.981,1.167-3.837,2.483-5.158,4.418
		c-0.282,0.415-0.461,0.035-0.679-0.044c-0.315-0.114-0.256-0.296-0.101-0.525c0.661-0.977,1.483-1.801,2.381-2.554
		c0.954-0.802,1.983-1.497,3.069-2.107c0.15-0.084,0.319-0.346,0.52-0.135C92.656,95.063,92.731,95.295,92.822,95.461z"/>
</g>
</svg>
