<?xml version="1.0" encoding="utf-8"?>
<!-- Generator: Adobe Illustrator 16.0.0, SVG Export Plug-In . SVG Version: 6.00 Build 0)  -->
<!DOCTYPE svg PUBLIC "-//W3C//DTD SVG 1.1//EN" "http://www.w3.org/Graphics/SVG/1.1/DTD/svg11.dtd">
<svg version="1.1" id="圖層_1" xmlns="http://www.w3.org/2000/svg" xmlns:xlink="http://www.w3.org/1999/xlink" x="0px" y="0px"
	 width="194px" height="194px" viewBox="0 -25.5 194 194" enable-background="new 0 -25.5 194 194" xml:space="preserve">
<g>
	<path stroke="#FFFFFF" stroke-width="4" stroke-miterlimit="10" d="M179.41,42.059c-1.167-15.929-5.288-25.566-24.293-30.502
		c-6.015-1.562-12.109-1.652-18.228-1.396c-3.682,0-7.414-0.404-11.035,0.064c-27.041,3.491-52.043,12.737-75.022,27.354
		c-12.646,8.044-24.149,17.384-31.85,30.617c-5.978,10.27-6.274,20.4,0.35,30.633c11.162,17.245,27.887,25.198,47.401,27.101
		c36.518,3.563,67.691-8.636,92.998-34.965C172.666,77.507,180.823,61.365,179.41,42.059z M50.884,109.929
		c43.162-2.029,80.725-17.112,112.882-45.957C149.998,101.331,86.968,127.012,50.884,109.929z M164.566,42.543
		c-2.938,6.554-7.587,11.891-12.918,16.567c-23.448,20.567-51.047,32.23-81.534,37.432c-9.55,1.63-19.208,2.019-28.828,0.157
		c-0.45-0.087-0.919-0.093-1.365-0.195c-13.813-3.172-17.469-12.047-9.854-24.084c5.255-8.307,12.532-14.661,20.422-20.297
		c22.89-16.35,48.421-26.139,76.223-30.022c3.457-0.482,7.039-0.065,10.563-0.065c6.868-0.277,13.755-0.216,20.227,2.626
		C165.688,28.255,168.21,34.417,164.566,42.543z"/>
	<path fill="#010101" stroke="#FFFFFF" stroke-width="4" stroke-miterlimit="10" d="M71.796,53.412
		c0.058,1.7-1.248,1.859-2.099,2.36C57.743,62.813,46.548,70.75,38.585,82.425c-1.707,2.5-2.786,0.206-4.098-0.271
		c-1.902-0.689-1.547-1.787-0.611-3.169c3.991-5.888,8.949-10.858,14.362-15.408c5.756-4.834,11.965-9.027,18.51-12.708
		c0.904-0.509,1.928-2.09,3.138-0.816C70.798,51.015,71.25,52.413,71.796,53.412z"/>
</g>
</svg>
