<?xml version="1.0" encoding="utf-8"?>
<!-- Generator: Adobe Illustrator 16.0.0, SVG Export Plug-In . SVG Version: 6.00 Build 0)  -->
<!DOCTYPE svg PUBLIC "-//W3C//DTD SVG 1.1//EN" "http://www.w3.org/Graphics/SVG/1.1/DTD/svg11.dtd">
<svg version="1.1" id="Capa_1" xmlns="http://www.w3.org/2000/svg" xmlns:xlink="http://www.w3.org/1999/xlink" x="0px" y="0px"
	 width="32px" height="32px" viewBox="432.683 432.683 32 32" enable-background="new 432.683 432.683 32 32" xml:space="preserve">
<g>
	<path d="M464.628,444.079c-0.006-0.102-0.055-0.165-0.153-0.19c-0.069-0.018-0.138-0.037-0.208-0.048
		c-0.997-0.156-1.995-0.31-3.002-0.379c-0.805-0.056-1.61-0.091-2.417-0.127c-1.552-0.069-3.101-0.036-4.644,0.16
		c-0.943,0.119-1.876,0.29-2.783,0.583c-0.458,0.148-0.908,0.321-1.367,0.466c-0.716,0.227-1.451,0.329-2.194,0.189
		c-0.447-0.084-0.888-0.211-1.321-0.352c-0.784-0.253-1.567-0.503-2.381-0.653c-1.581-0.292-3.174-0.426-4.66-0.41
		c-1.211,0.002-2.299,0.043-3.382,0.173c-0.888,0.106-1.775,0.225-2.662,0.345c-0.188,0.026-0.373,0.082-0.557,0.13
		c-0.099,0.026-0.164,0.091-0.167,0.201c-0.017,0.524-0.035,1.047-0.048,1.572c-0.002,0.079,0.018,0.158,0.029,0.237
		c0.01,0.067,0.046,0.113,0.11,0.141c0.068,0.03,0.137,0.06,0.197,0.101c0.292,0.203,0.432,0.51,0.543,0.829
		c0.08,0.228,0.131,0.465,0.197,0.698c0.041,0.145,0.095,0.286,0.128,0.433c0.154,0.684,0.297,1.371,0.454,2.054
		c0.15,0.651,0.346,1.289,0.658,1.885c0.348,0.666,0.844,1.176,1.548,1.469c0.426,0.178,0.87,0.291,1.325,0.363
		c0.814,0.129,1.634,0.145,2.456,0.085c0.832-0.06,1.654-0.186,2.454-0.428c0.594-0.181,1.156-0.431,1.633-0.837
		c0.728-0.62,1.314-1.357,1.764-2.203c0.45-0.844,0.765-1.742,1.048-2.652c0.082-0.261,0.158-0.524,0.253-0.781
		c0.14-0.377,0.41-0.611,0.813-0.673c0.128-0.02,0.261-0.025,0.391-0.018c0.303,0.018,0.593,0.082,0.795,0.334
		c0.088,0.11,0.169,0.231,0.226,0.36c0.11,0.25,0.215,0.504,0.297,0.764c0.355,1.125,0.826,2.197,1.423,3.215
		c0.494,0.847,1.146,1.529,2.011,2.001c0.611,0.334,1.266,0.546,1.946,0.679c1.024,0.199,2.059,0.247,3.099,0.202
		c0.629-0.027,1.25-0.107,1.854-0.288c0.62-0.187,1.166-0.488,1.573-1.006c0.264-0.335,0.46-0.707,0.62-1.1
		c0.34-0.826,0.558-1.688,0.754-2.556c0.097-0.425,0.196-0.849,0.3-1.272c0.054-0.221,0.122-0.438,0.184-0.658
		c0.057-0.206,0.105-0.414,0.236-0.591c0.13-0.179,0.264-0.354,0.482-0.431c0.095-0.034,0.143-0.101,0.163-0.191
		c0.016-0.07,0.033-0.141,0.033-0.211c0-0.313,0-0.627-0.009-0.939C464.666,444.528,464.643,444.304,464.628,444.079
		 M434.02,445.071c-0.339,0-0.613-0.067-0.613-0.15c0-0.084,0.274-0.151,0.613-0.151c0.338,0,0.613,0.067,0.613,0.151
		C434.633,445.003,434.359,445.071,434.02,445.071 M445.87,448.385c-0.215,0.915-0.569,1.772-1.044,2.583
		c-0.259,0.442-0.553,0.856-0.925,1.212c-0.492,0.47-1.084,0.747-1.734,0.917c-1.316,0.345-2.647,0.431-3.993,0.229
		c-0.264-0.039-0.524-0.108-0.784-0.174c-0.534-0.138-0.94-0.449-1.248-0.908c-0.341-0.508-0.55-1.065-0.691-1.655
		c-0.183-0.77-0.286-1.552-0.364-2.338c-0.045-0.456-0.037-0.91,0.02-1.364c0.028-0.229,0.047-0.46,0.099-0.684
		c0.183-0.795,0.674-1.301,1.464-1.508c0.722-0.189,1.458-0.301,2.2-0.361c0.55-0.045,1.103-0.068,1.459-0.089
		c1.267,0.016,2.332,0.097,3.378,0.338c0.428,0.098,0.861,0.186,1.252,0.394c0.192,0.103,0.379,0.224,0.547,0.363
		c0.277,0.229,0.419,0.54,0.478,0.892C446.107,446.958,446.037,447.674,445.87,448.385 M462.267,448.046
		c-0.027,1.104-0.214,2.183-0.607,3.22c-0.159,0.419-0.375,0.808-0.7,1.122c-0.362,0.352-0.813,0.538-1.293,0.668
		c-0.603,0.163-1.218,0.202-1.838,0.208c-0.937,0.008-1.859-0.108-2.773-0.304c-0.906-0.192-1.629-0.667-2.204-1.385
		c-0.737-0.922-1.209-1.967-1.474-3.111c-0.122-0.528-0.226-1.061-0.212-1.606c0.006-0.235,0.03-0.472,0.073-0.704
		c0.104-0.577,0.459-0.954,0.992-1.17c0.536-0.217,1.097-0.35,1.662-0.461c0.63-0.125,1.264-0.218,1.904-0.26
		c0.5-0.032,1.001-0.046,1.34-0.061c1.341,0.065,2.513,0.165,3.653,0.489c0.209,0.06,0.41,0.155,0.607,0.249
		c0.188,0.088,0.333,0.231,0.426,0.418c0.104,0.207,0.209,0.413,0.291,0.627c0.095,0.251,0.116,0.521,0.126,0.788
		C462.257,447.198,462.278,447.623,462.267,448.046 M463.325,445.071c-0.339,0-0.613-0.067-0.613-0.15
		c0-0.084,0.274-0.151,0.613-0.151c0.338,0,0.612,0.067,0.612,0.151C463.938,445.003,463.663,445.071,463.325,445.071"/>
</g>
</svg>
