<?xml version="1.0" encoding="utf-8"?>
<!-- Generator: Adobe Illustrator 16.0.0, SVG Export Plug-In . SVG Version: 6.00 Build 0)  -->
<!DOCTYPE svg PUBLIC "-//W3C//DTD SVG 1.1//EN" "http://www.w3.org/Graphics/SVG/1.1/DTD/svg11.dtd">
<svg version="1.1" id="圖層_1" xmlns="http://www.w3.org/2000/svg" xmlns:xlink="http://www.w3.org/1999/xlink" x="0px" y="0px"
	 width="225px" height="230px" viewBox="0 0 225 230" enable-background="new 0 0 225 230" xml:space="preserve">
<g>
	<path stroke="#FFFFFF" stroke-width="3" stroke-miterlimit="10" d="M156.027,28.104c0,4.403,0,8.243,0,12.578
		c6.229,0,12.042-0.014,17.859,0.001c14.749,0.039,25.575,10.749,25.597,25.564c0.057,40.853,0.054,81.706,0.001,122.559
		c-0.019,14.67-10.504,25.542-25.111,25.594c-41.152,0.145-82.307,0.131-123.46,0.01c-14.856-0.044-25.379-10.859-25.397-25.781
		c-0.053-40.703-0.056-81.406,0.001-122.108C25.537,51.348,36.25,40.715,51.3,40.684c5.682-0.013,11.363-0.002,17.628-0.002
		c0-4.265,0-8.22,0-13.279c11.021,3.351,18.576-2.057,26.953-7.306c13.208-8.276,30.912-4.868,41.789,6.034
		c1.092,1.096,3.019,1.791,4.602,1.884C146.605,28.271,150.963,28.104,156.027,28.104z M68.919,52.806
		c-5.747,0-11.119-0.051-16.49,0.011c-9.691,0.112-14.436,4.779-14.479,14.38c-0.065,14.266-0.019,28.532-0.019,42.8
		c0,25.979-0.036,51.959,0.021,77.938c0.02,9.398,4.838,14.166,14.082,14.168c40.396,0.012,80.794,0.084,121.189-0.141
		c3.314-0.02,7.026-1.493,9.824-3.376c3.77-2.537,4.056-7.012,4.047-11.366c-0.074-40.096-0.083-80.191-0.115-120.288
		c-0.001-1.05,0.028-2.112-0.107-3.148c-0.672-5.125-3.561-9.268-8.394-10.03c-7.28-1.147-14.786-0.87-22.795-1.225
		c0,8.983,0,16.986,0,24.857c-29.184,0-57.783,0-86.766,0C68.919,69.147,68.919,61.236,68.919,52.806z M81.667,40.572
		c0,8.495,0,16.513,0,24.642c20.725,0,41.197,0,61.594,0c0-8.39,0-16.426,0-24.693c-4.499,0-8.681,0-13.061,0
		c-2.062-8.693-8.375-11.894-16.312-12.314c-9.196-0.486-16.465,2.693-19.364,12.365C90.228,40.572,86.181,40.572,81.667,40.572z"/>
	<path stroke="#FFFFFF" stroke-width="3" stroke-miterlimit="10" d="M112.355,146.211c-13.514,0-27.028,0.026-40.541-0.033
		c-1.762-0.008-4.008,0.114-5.165-0.855c-1.63-1.365-3.311-3.672-3.361-5.616c-0.044-1.727,1.766-4.01,3.39-5.118
		c1.424-0.969,3.728-0.857,5.644-0.861c26.728-0.048,53.456-0.032,80.183-0.029c1.201,0,2.423-0.105,3.598,0.081
		c3.508,0.558,5.862,2.367,5.828,6.215c-0.031,3.818-2.331,5.665-5.883,6.154c-1.181,0.162-2.398,0.063-3.6,0.063
		C139.082,146.212,125.719,146.211,112.355,146.211z"/>
	<path stroke="#FFFFFF" stroke-width="3" stroke-miterlimit="10" d="M112.047,114.9c-13.958-0.001-27.917,0.035-41.876-0.021
		c-5.23-0.021-8-3.043-6.959-7.451c0.895-3.786,3.684-4.617,7.183-4.607c22.965,0.053,45.929,0.025,68.894,0.025
		c4.503,0,9.006-0.002,13.509,0.001c6.451,0.003,9.104,1.711,9.188,5.917c0.087,4.346-2.647,6.135-9.412,6.136
		C139.064,114.904,125.556,114.9,112.047,114.9z"/>
	<path stroke="#FFFFFF" stroke-width="3" stroke-miterlimit="10" d="M112.967,165.004c13.807,0,27.612-0.017,41.42,0.009
		c5.079,0.007,7.668,2.141,7.593,6.126c-0.072,3.822-2.565,5.875-7.402,5.879c-28.063,0.021-56.126,0.023-84.189,0
		c-4.83-0.005-7.314-2.07-7.369-5.907c-0.057-3.983,2.525-6.091,7.628-6.1C84.753,164.988,98.86,165.004,112.967,165.004z"/>
</g>
</svg>
