<?xml version="1.0" encoding="utf-8"?>
<!-- Generator: Adobe Illustrator 16.0.0, SVG Export Plug-In . SVG Version: 6.00 Build 0)  -->
<!DOCTYPE svg PUBLIC "-//W3C//DTD SVG 1.1//EN" "http://www.w3.org/Graphics/SVG/1.1/DTD/svg11.dtd">
<svg version="1.1" id="圖層_1" xmlns="http://www.w3.org/2000/svg" xmlns:xlink="http://www.w3.org/1999/xlink" x="0px" y="0px"
	 width="225px" height="230px" viewBox="0 0 225 230" enable-background="new 0 0 225 230" xml:space="preserve">
<g>
	<path fill-rule="evenodd" clip-rule="evenodd" d="M160.779,21c0,4.884,0,9.143,0,13.951c6.908,0,13.357-0.015,19.809,0.002
		c16.359,0.043,28.367,11.922,28.391,28.355c0.063,45.313,0.059,90.625,0.001,135.938c-0.021,16.272-11.651,28.331-27.853,28.388
		c-45.645,0.161-91.291,0.145-136.937,0.011c-16.478-0.049-28.149-12.046-28.17-28.596c-0.058-45.146-0.061-90.292,0.001-135.438
		c0.023-16.83,11.905-28.623,28.598-28.658c6.302-0.014,12.604-0.003,19.552-0.003c0-4.73,0-9.117,0-14.729
		c12.225,3.717,20.605-2.281,29.896-8.103c14.65-9.179,34.286-5.399,46.35,6.693c1.212,1.216,3.348,1.986,5.105,2.09
		C150.329,21.185,155.162,21,160.779,21z M64.162,48.398c-6.375,0-12.333-0.057-18.291,0.012
		c-10.749,0.124-16.011,5.301-16.06,15.95c-0.072,15.823-0.02,31.647-0.02,47.472c0,28.816-0.04,57.632,0.022,86.448
		c0.022,10.423,5.366,15.711,15.619,15.714c44.807,0.013,89.614,0.093,134.419-0.156c3.676-0.021,7.794-1.657,10.897-3.745
		c4.182-2.813,4.498-7.776,4.488-12.606c-0.082-44.473-0.092-88.946-0.127-133.42c-0.002-1.165,0.031-2.343-0.12-3.492
		c-0.745-5.684-3.948-10.279-9.309-11.125c-8.075-1.273-16.4-0.965-25.284-1.358c0,9.963,0,18.84,0,27.57
		c-32.369,0-64.09,0-96.237,0C64.162,66.523,64.162,57.749,64.162,48.398z M78.302,34.829c0,9.422,0,18.315,0,27.332
		c22.986,0,45.694,0,68.317,0c0-9.306,0-18.219,0-27.389c-4.99,0-9.629,0-14.486,0c-2.288-9.642-9.289-13.192-18.092-13.658
		c-10.2-0.54-18.263,2.987-21.479,13.715C87.796,34.829,83.308,34.829,78.302,34.829z"/>
	<path fill-rule="evenodd" clip-rule="evenodd" d="M112.34,152c-14.989,0-29.979,0.03-44.967-0.037
		c-1.954-0.009-4.445,0.127-5.729-0.949c-1.807-1.514-3.672-4.072-3.728-6.229c-0.049-1.916,1.958-4.448,3.76-5.677
		c1.579-1.075,4.134-0.952,6.259-0.956c29.646-0.052,59.292-0.036,88.936-0.032c1.332,0,2.688-0.117,3.99,0.09
		c3.891,0.618,6.502,2.626,6.465,6.893c-0.035,4.235-2.586,6.284-6.525,6.826c-1.31,0.18-2.66,0.07-3.992,0.07
		C141.985,152.001,127.162,152,112.34,152z"/>
	<path fill-rule="evenodd" clip-rule="evenodd" d="M111.998,117.271c-15.482-0.002-30.965,0.039-46.447-0.023
		c-5.802-0.023-8.874-3.375-7.719-8.264c0.992-4.2,4.085-5.121,7.967-5.111c25.471,0.059,50.942,0.029,76.413,0.029
		c4.995,0,9.989-0.002,14.983,0.001c7.157,0.003,10.099,1.898,10.191,6.563c0.096,4.819-2.936,6.803-10.439,6.806
		C141.964,117.275,126.98,117.272,111.998,117.271z"/>
	<path fill-rule="evenodd" clip-rule="evenodd" d="M113.018,172.844c15.313,0,30.627-0.018,45.941,0.009
		c5.634,0.009,8.506,2.375,8.422,6.796c-0.08,4.24-2.846,6.516-8.21,6.52c-31.127,0.025-62.253,0.026-93.38,0
		c-5.358-0.005-8.113-2.296-8.174-6.552c-0.063-4.418,2.801-6.756,8.461-6.765C81.724,172.827,97.371,172.844,113.018,172.844z"/>
</g>
</svg>
